<svg width="42" height="98" viewBox="0 0 42 98" fill="none" xmlns="http://www.w3.org/2000/svg">
<path d="M16.1797 12.8037V12.96L16.4922 12.8037H17.2734C17.3776 12.8037 17.4297 12.8558 17.4297 12.96L17.7422 12.8037H18.3672V12.96C18.0547 13.3506 17.8984 13.7152 17.8984 14.0537C18.0026 14.3662 18.3151 14.5225 18.8359 14.5225H19.6172C20.1641 14.5225 20.4766 14.3662 20.5547 14.0537C20.5547 13.9495 20.1901 13.585 19.4609 12.96C19.5651 12.96 19.6172 12.9079 19.6172 12.8037L22.2734 13.1162C22.4818 13.012 22.638 12.96 22.7422 12.96C23.862 13.585 24.6953 14.4183 25.2422 15.46V15.9287C24.3047 16.5798 23.8359 16.9964 23.8359 17.1787C23.8359 17.335 24.2526 17.9079 25.0859 18.8975V19.21C24.4609 19.4183 24.1484 19.6266 24.1484 19.835V19.9912C24.1484 20.2777 24.7734 20.5902 26.0234 20.9287H26.1797C26.3359 20.9287 26.5443 20.4079 26.8047 19.3662C26.8047 18.611 26.7005 17.9339 26.4922 17.335C26.5964 16.762 26.6484 16.2933 26.6484 15.9287V14.3662C26.6484 14.0798 26.5443 13.7673 26.3359 13.4287C26.5443 13.4287 26.6484 13.3245 26.6484 13.1162C27.6901 13.2204 28.4714 13.2725 28.9922 13.2725H29.1484L29.9297 13.1162L30.2422 13.585C29.8776 13.9495 29.3047 14.3141 28.5234 14.6787C28.4193 14.861 28.3672 15.0693 28.3672 15.3037C28.3672 15.9287 28.6797 16.2412 29.3047 16.2412L30.5547 14.5225C30.6849 14.5225 30.9453 14.1579 31.3359 13.4287C31.5182 13.3245 31.7266 13.2725 31.9609 13.2725C32.3255 13.2725 33.2109 13.8975 34.6172 15.1475V15.3037L34.3047 15.7725V16.2412C34.513 16.2412 34.6172 16.2933 34.6172 16.3975L34.9297 16.2412H35.2422C35.4505 16.2673 35.5547 16.3714 35.5547 16.5537C35.4505 16.736 35.3984 16.9443 35.3984 17.1787C35.5547 17.1787 35.7109 17.335 35.8672 17.6475V17.96C35.8672 18.1683 35.4505 18.3245 34.6172 18.4287V18.8975L36.1797 20.1475V20.3037C36.1797 20.486 35.763 20.7985 34.9297 21.2412V22.0225C34.9297 22.1787 35.138 22.387 35.5547 22.6475H36.0234L36.6484 22.1787H36.9609C37.1693 22.1787 37.2734 22.335 37.2734 22.6475C37.0651 22.986 36.9609 23.2985 36.9609 23.585V23.8975H37.7422C37.9505 23.8975 38.0547 23.7933 38.0547 23.585C38.0547 23.2464 37.9505 22.5173 37.7422 21.3975C37.9505 21.0589 38.0547 20.7464 38.0547 20.46C37.8464 19.7829 37.7422 19.3141 37.7422 19.0537L38.0547 18.8975C40.138 21.2152 41.1797 23.3506 41.1797 25.3037C41.1797 27.4652 41.2839 29.861 41.4922 32.4912C41.4922 33.8454 41.1276 34.5225 40.3984 34.5225C40.2161 34.6266 40.0078 34.6787 39.7734 34.6787C39.7734 33.8454 39.4609 33.2204 38.8359 32.8037V32.6475C39.3568 32.6475 39.6172 32.5433 39.6172 32.335V31.71C39.2005 27.5433 38.6797 25.46 38.0547 25.46C38.0547 24.7308 37.9505 24.3662 37.7422 24.3662H37.4297C37.1172 24.4704 36.9609 24.7829 36.9609 25.3037C37.5859 26.762 38.0547 28.1162 38.3672 29.3662L37.8984 29.9912V30.1475L38.6797 30.9287V31.085L38.3672 31.5537L37.2734 31.3975H36.8047C36.6224 31.3975 36.4661 31.71 36.3359 32.335C36.4401 32.5433 36.4922 32.6995 36.4922 32.8037H37.2734C37.4818 32.8298 37.5859 32.9339 37.5859 33.1162C37.4818 33.2985 37.4297 33.5068 37.4297 33.7412C37.8724 33.8714 38.1849 34.1318 38.3672 34.5225C38.3672 34.7308 38.263 34.835 38.0547 34.835H33.8359L32.7422 34.5225C32.7422 34.7308 32.638 34.835 32.4297 34.835H29.1484C28.0547 34.835 27.0651 34.5225 26.1797 33.8975V32.0225L26.4922 31.5537L26.8047 31.71H26.9609C27.1693 31.71 27.2734 31.6058 27.2734 31.3975V30.9287C26.8307 30.9287 26.5182 30.7204 26.3359 30.3037C26.7526 29.861 26.9609 29.4443 26.9609 29.0537L26.1797 28.1162C26.7005 27.986 26.9609 27.8298 26.9609 27.6475V25.7725C26.9609 25.1475 26.5443 24.6266 25.7109 24.21L25.3984 24.3662L25.8672 25.1475V25.3037L25.3984 25.9287V26.3975C25.7109 26.7881 25.8672 27.1527 25.8672 27.4912H25.7109C24.6953 26.6579 23.4453 26.2412 21.9609 26.2412H21.3359C21.1536 26.2412 20.9974 25.9808 20.8672 25.46C20.9714 25.0433 21.0234 24.262 21.0234 23.1162C20.8151 23.1162 20.7109 23.012 20.7109 22.8037C21.0234 22.2829 21.1797 21.9183 21.1797 21.71L20.7109 19.5225C20.8151 19.3402 20.8672 19.1318 20.8672 18.8975V18.585L20.5547 18.1162C20.5547 18.012 20.6589 17.5954 20.8672 16.8662V15.9287C20.763 15.512 20.2422 15.3037 19.3047 15.3037C18.9661 15.512 18.6536 15.6162 18.3672 15.6162C18.1849 15.2256 17.8724 14.9652 17.4297 14.835C17.1432 15.1995 16.8307 16.71 16.4922 19.3662C16.5964 19.9391 16.6484 20.4079 16.6484 20.7725V22.4912C16.8568 23.4287 17.1172 23.8975 17.4297 23.8975H17.5859C17.7943 23.8975 17.9505 23.3766 18.0547 22.335L17.8984 21.5537L18.0547 20.7725L17.5859 19.21C17.7943 19.21 17.8984 19.1058 17.8984 18.8975V16.71H18.0547L18.5234 17.0225H18.9922L19.6172 16.3975C19.8255 16.4235 19.9297 16.5277 19.9297 16.71C19.5391 16.71 19.2266 17.2308 18.9922 18.2725V18.4287C19.4089 18.8975 19.6172 19.262 19.6172 19.5225L19.4609 19.835C19.6693 20.1735 19.7734 20.4339 19.7734 20.6162C19.0443 20.7985 18.6797 21.0068 18.6797 21.2412V21.5537L19.1484 22.1787V22.335C18.7318 22.8298 18.5234 23.2464 18.5234 23.585C18.5234 23.6891 18.7318 24.0016 19.1484 24.5225V24.6787C19.1484 24.887 18.8359 25.0433 18.2109 25.1475V25.46L18.5234 26.5537C16.1276 26.5537 14.9297 28.4808 14.9297 32.335C14.9297 34.1318 15.7109 35.6423 17.2734 36.8662C17.2734 37.6735 17.0651 38.8714 16.6484 40.46C16.8568 40.7985 16.9609 41.111 16.9609 41.3975V41.71C16.5443 42.0225 16.3359 43.2725 16.3359 45.46V46.8662C16.3359 47.2048 16.4922 47.5693 16.8047 47.96C16.6745 49.5225 16.4661 50.3037 16.1797 50.3037C15.112 50.1995 14.487 50.1475 14.3047 50.1475L13.2109 50.3037C10.0859 50.3037 7.42969 48.6891 5.24219 45.46C4.69531 45.46 3.39323 44.0016 1.33594 41.085C0.945312 40.486 0.632812 37.2568 0.398438 31.3975C0.294271 30.4079 0.242188 29.3141 0.242188 28.1162V27.6475C0.242188 24.0798 1.17969 21.4235 3.05469 19.6787L8.52344 14.0537C8.83594 14.0537 8.99219 14.262 8.99219 14.6787H9.61719V14.21L9.46094 13.4287C11.1016 13.2204 13.3411 13.012 16.1797 12.8037ZM13.5234 14.3662V14.835C13.5495 15.0433 13.6536 15.1475 13.8359 15.1475H14.1484C14.3568 15.1475 14.4609 15.0433 14.4609 14.835V14.6787C14.4609 14.4704 14.3568 14.3662 14.1484 14.3662H13.5234ZM30.3984 15.9287C30.3984 16.0329 30.6068 16.2412 31.0234 16.5537C31.2318 16.5537 31.5443 16.2933 31.9609 15.7725C31.8047 15.3558 31.6484 15.1475 31.4922 15.1475H31.1797C31.0495 15.1475 30.7891 15.4079 30.3984 15.9287ZM28.3672 17.4912C28.5755 17.8298 28.6797 18.1423 28.6797 18.4287C28.4714 18.7673 28.3672 19.0798 28.3672 19.3662V19.835C28.3932 20.0433 28.4974 20.1475 28.6797 20.1475H28.9922L29.4609 19.835H29.9297V20.3037H28.9922C28.9922 20.4079 28.888 20.8245 28.6797 21.5537C28.7578 21.9704 29.1224 22.1787 29.7734 22.1787C30.7109 22.1266 31.1797 21.9704 31.1797 21.71L30.3984 21.085V20.6162L32.1172 19.3662V19.21C31.9089 18.9495 31.8047 18.7933 31.8047 18.7412V17.96C31.2057 17.96 30.7891 17.6995 30.5547 17.1787H30.3984L29.7734 17.6475L29.1484 16.8662C28.6797 17.0745 28.4193 17.2829 28.3672 17.4912ZM8.83594 17.4912V19.3662C8.99219 21.0329 9.35677 21.8662 9.92969 21.8662C10.138 21.4495 10.2422 21.137 10.2422 20.9287C10.0339 20.512 9.92969 20.1475 9.92969 19.835L10.2422 19.0537C10.0859 17.8037 9.8776 17.1787 9.61719 17.1787H9.14844C8.9401 17.2048 8.83594 17.3089 8.83594 17.4912ZM26.3359 22.1787L26.0234 22.6475C26.1797 23.0641 26.3359 23.2725 26.4922 23.2725H27.2734V22.4912C26.987 22.4912 26.6745 22.387 26.3359 22.1787ZM23.6797 22.4912V23.2725L24.4609 23.4287C24.487 23.2204 24.5911 23.1162 24.7734 23.1162C24.6693 22.6995 24.3568 22.4912 23.8359 22.4912H23.6797ZM9.46094 23.1162V23.585C9.48698 23.7933 9.59115 23.8975 9.77344 23.8975H9.92969C10.0859 23.8975 10.2422 23.7412 10.3984 23.4287V23.1162C10.3984 22.9079 10.2943 22.8037 10.0859 22.8037H9.77344C9.5651 22.8298 9.46094 22.9339 9.46094 23.1162ZM35.3984 23.2725V23.7412C35.4245 23.9495 35.5286 24.0537 35.7109 24.0537H36.1797V23.585C36.1797 23.3766 36.0755 23.2725 35.8672 23.2725H35.3984ZM3.83594 25.3037V26.71C3.52344 27.96 3.36719 28.7412 3.36719 29.0537L3.67969 29.9912C3.57552 30.4079 3.52344 30.7725 3.52344 31.085C3.91406 31.9964 4.22656 32.4652 4.46094 32.4912C4.77344 32.4131 4.98177 32.2048 5.08594 31.8662C4.92969 31.6318 4.77344 30.9548 4.61719 29.835L4.77344 29.5225C4.5651 29.1839 4.46094 28.8714 4.46094 28.585V28.2725C4.77344 27.8818 4.92969 27.4131 4.92969 26.8662C4.72135 26.5537 4.61719 26.1891 4.61719 25.7725L4.77344 24.3662C4.66927 24.1579 4.61719 24.0016 4.61719 23.8975C4.4349 23.8975 4.17448 24.3662 3.83594 25.3037ZM9.46094 29.835V30.46C9.46094 30.5641 9.5651 30.9808 9.77344 31.71V31.8662L8.99219 32.96C9.46094 34.4183 9.98177 35.1475 10.5547 35.1475C10.763 34.8089 10.8672 34.4964 10.8672 34.21V33.585L10.3984 32.96C10.3984 32.7516 10.5547 32.6475 10.8672 32.6475V31.2412L11.3359 30.6162V30.1475L11.1797 29.835L10.3984 29.9912L9.77344 29.5225C9.5651 29.5485 9.46094 29.6527 9.46094 29.835ZM26.8047 31.8662L26.6484 32.96V33.7412C26.6745 33.9495 26.7786 34.0537 26.9609 34.0537C27.6901 34.0537 28.0547 33.6891 28.0547 32.96C27.9245 32.4912 27.5078 32.1266 26.8047 31.8662ZM10.0859 36.3975C10.0859 36.762 10.2943 37.1787 10.7109 37.6475L10.5547 38.585L10.8672 38.7412H11.3359C11.4661 38.7412 11.6745 38.2725 11.9609 37.335C12.0651 37.335 12.1172 37.2829 12.1172 37.1787V36.8662C11.8828 36.3454 11.362 36.085 10.5547 36.085H10.3984C10.1901 36.111 10.0859 36.2152 10.0859 36.3975ZM28.3672 36.2412H30.7109C32.4818 36.2412 33.888 37.0745 34.9297 38.7412C36.6745 41.0068 37.9766 42.5693 38.8359 43.4287V43.585C38.7318 44.4183 38.5755 44.835 38.3672 44.835C38.3672 44.7308 38.3151 44.6787 38.2109 44.6787L38.0547 44.9912V45.9287H38.5234C39.0443 45.9287 39.6693 45.6162 40.3984 44.9912C41.0234 45.8245 41.3359 46.762 41.3359 47.8037V48.8975C41.3359 49.1318 41.388 49.3402 41.4922 49.5225C41.388 49.5225 41.2839 50.9808 41.1797 53.8975C41.2839 58.3766 41.3359 61.137 41.3359 62.1787C40.9453 64.4443 38.3411 67.6735 33.5234 71.8662C33.263 71.8662 33.1068 71.3975 33.0547 70.46C33.0547 70.2777 33.1589 69.9652 33.3672 69.5225C33.263 69.3141 33.2109 69.1579 33.2109 69.0537C34.2266 68.7152 34.7995 68.4548 34.9297 68.2725V67.8037C34.9297 67.5954 34.8255 67.4912 34.6172 67.4912C34.513 67.4912 34.0964 67.5954 33.3672 67.8037L32.7422 67.335C32.1172 67.335 31.6484 67.6995 31.3359 68.4287C31.4401 68.611 31.4922 68.8193 31.4922 69.0537C31.2839 69.0798 31.1797 69.1839 31.1797 69.3662L31.8047 69.9912V70.1475C31.8047 70.3558 31.7005 70.46 31.4922 70.46H31.1797L30.5547 69.9912H30.3984C30.0859 70.0954 29.9297 70.4079 29.9297 70.9287C30.4505 71.111 30.7109 71.4235 30.7109 71.8662H31.1797L31.6484 71.5537H31.8047C31.9609 71.5537 32.1172 71.71 32.2734 72.0225C32.0651 72.4912 31.8568 72.7516 31.6484 72.8037H23.8359C23.6797 72.8037 23.4714 72.5954 23.2109 72.1787V71.5537C23.2109 71.4495 23.263 71.3975 23.3672 71.3975L23.2109 71.085L23.3672 69.9912L22.8984 69.6787H22.7422C22.4818 69.887 22.3255 69.9912 22.2734 69.9912L22.4297 70.7725C22.013 71.2412 21.8047 71.6058 21.8047 71.8662L21.9609 72.6475L21.6484 72.8037H19.6172L18.8359 72.96L18.5234 72.4912V72.0225L18.9922 71.2412C18.888 70.3558 18.7318 69.5745 18.5234 68.8975C18.6276 68.1943 18.6797 67.6214 18.6797 67.1787V66.8662C18.6797 66.1891 18.6276 65.512 18.5234 64.835L18.9922 62.8037C18.7839 62.4652 18.6797 62.1527 18.6797 61.8662C18.9922 61.762 19.1484 61.4495 19.1484 60.9287V60.7725L18.5234 59.6787C18.6276 59.6787 18.6797 59.6266 18.6797 59.5225C19.6432 59.7308 20.6328 59.887 21.6484 59.9912C24.5651 59.9912 26.2318 58.8975 26.6484 56.71L27.1172 55.9287C27.013 55.6162 26.9089 55.46 26.8047 55.46L26.9609 54.6787V54.0537C26.9609 51.71 26.0755 50.3037 24.3047 49.835C24.2005 49.835 24.0443 49.7829 23.8359 49.6787L22.8984 49.835H22.4297C22.1953 49.835 22.0391 49.0537 21.9609 47.4912C22.1693 47.0745 22.2734 46.762 22.2734 46.5537C22.0651 46.2152 21.9609 45.9548 21.9609 45.7725C21.9609 45.6162 22.3255 45.2516 23.0547 44.6787C22.9505 44.3141 22.5339 43.637 21.8047 42.6475C21.7005 42.4391 21.6484 42.2829 21.6484 42.1787C21.8568 42.1787 21.9609 42.0745 21.9609 41.8662V41.71C21.9609 41.1631 21.8047 40.8506 21.4922 40.7725C21.4922 39.6006 21.8568 38.611 22.5859 37.8037C22.5859 37.0745 22.7943 36.71 23.2109 36.71C23.7839 36.6058 24.2005 36.5537 24.4609 36.5537V36.71C24.5651 36.6058 25.3984 36.5016 26.9609 36.3975L27.1172 36.71V36.8662C26.4922 37.2568 26.1797 37.5173 26.1797 37.6475V37.8037C26.8828 38.4808 27.2474 39.1058 27.2734 39.6787H28.3672C28.3672 39.4704 28.4193 39.3662 28.5234 39.3662L28.0547 36.3975L28.3672 36.2412ZM18.9922 36.8662H19.3047L19.6172 37.0225L19.4609 37.8037C19.7995 38.1943 20.112 38.7673 20.3984 39.5225C19.9818 40.2777 19.7734 40.8506 19.7734 41.2412C19.9818 41.762 20.0859 42.4391 20.0859 43.2725C19.8776 43.2985 19.7734 43.4027 19.7734 43.585V45.3037L20.7109 47.335V47.4912L20.5547 48.1162C20.763 48.585 20.8672 49.0537 20.8672 49.5225C20.6589 49.7308 19.7734 49.9391 18.2109 50.1475C17.7422 49.835 17.4297 49.6787 17.2734 49.6787V49.3662C17.6901 49.0016 17.8984 48.637 17.8984 48.2725C17.8984 48.1683 17.8464 48.012 17.7422 47.8037L18.0547 47.1787L17.4297 45.6162C17.5859 45.6162 17.8984 45.3037 18.3672 44.6787V44.3662L17.8984 43.7412V43.585C17.8984 43.3766 18.0547 43.2725 18.3672 43.2725V42.6475C18.0547 42.6475 17.8984 42.5433 17.8984 42.335V42.1787C17.8984 42.1006 18.1589 41.8402 18.6797 41.3975V40.7725L18.0547 40.1475C18.0547 39.887 18.263 39.7308 18.6797 39.6787V38.7412L17.8984 37.8037V37.6475C18.1589 37.6475 18.5234 37.387 18.9922 36.8662ZM32.2734 37.1787V37.6475C32.2734 37.8037 32.5859 38.1162 33.2109 38.585H33.5234V38.1162C33.3151 38.1162 33.0026 37.8037 32.5859 37.1787H32.2734ZM5.24219 38.8975V39.0537H5.71094C5.91927 39.0537 6.02344 38.9495 6.02344 38.7412L5.71094 38.585H5.55469C5.34635 38.611 5.24219 38.7152 5.24219 38.8975ZM10.5547 39.835L10.7109 41.3975C10.5026 41.5016 10.3464 41.5537 10.2422 41.5537V41.71L10.7109 43.2725C10.7109 43.3766 10.6589 43.4287 10.5547 43.4287C10.8411 44.3923 11.1016 45.486 11.3359 46.71L12.2734 47.1787C12.4818 46.5016 12.5859 46.0329 12.5859 45.7725C12.3255 45.2256 12.0651 44.0277 11.8047 42.1787C11.5964 42.1787 11.4922 41.9704 11.4922 41.5537L11.9609 40.7725V40.6162C11.9609 40.3818 11.9089 40.1735 11.8047 39.9912C11.9089 39.7829 11.9609 39.6266 11.9609 39.5225C11.8568 39.3141 11.8047 39.1579 11.8047 39.0537H11.1797C10.9714 39.1058 10.763 39.3662 10.5547 39.835ZM32.5859 39.21V39.6787L33.3672 39.835C33.5755 39.5745 33.6797 39.4183 33.6797 39.3662L33.3672 39.21H32.5859ZM4.77344 39.9912V40.3037C4.77344 40.9808 4.82552 41.6579 4.92969 42.335C4.82552 42.7516 4.77344 43.1162 4.77344 43.4287C4.77344 43.7412 5.08594 44.0537 5.71094 44.3662V44.21C5.71094 44.1318 5.65885 43.8193 5.55469 43.2725L5.71094 42.96C5.60677 42.7516 5.55469 42.5954 5.55469 42.4912C5.97135 42.3089 6.17969 41.9443 6.17969 41.3975V41.2412C6.17969 40.6943 5.86719 40.1735 5.24219 39.6787H5.08594C4.8776 39.7048 4.77344 39.8089 4.77344 39.9912ZM26.4922 41.085C26.4922 42.96 26.9089 43.8975 27.7422 43.8975C27.7422 44.0016 27.7943 44.0537 27.8984 44.0537H28.2109C28.3672 44.0537 28.5234 43.8975 28.6797 43.585C28.6797 43.1423 28.4714 42.6214 28.0547 42.0225V41.5537C28.2891 41.0329 28.4453 40.7725 28.5234 40.7725C28.4193 40.5641 28.3672 40.4079 28.3672 40.3037H27.4297L26.4922 41.085ZM31.9609 42.335C31.9609 42.7516 31.5964 43.2725 30.8672 43.8975L30.7109 44.21C30.8151 44.4183 30.8672 44.5745 30.8672 44.6787H31.1797C31.6745 44.6787 32.1953 44.6266 32.7422 44.5225L33.5234 44.6787C33.9401 44.5225 34.1484 44.3662 34.1484 44.21V43.585C34.0443 43.585 33.888 43.5329 33.6797 43.4287L32.8984 43.8975H32.5859C32.3776 43.8975 32.2734 43.7933 32.2734 43.585V43.2725C32.4818 43.012 32.5859 42.8558 32.5859 42.8037V42.335H31.9609ZM27.1172 44.6787L27.4297 45.1475C27.4297 45.2777 27.0651 45.5381 26.3359 45.9287V46.3975C26.3359 46.5798 26.5964 46.736 27.1172 46.8662C27.1432 46.6579 27.2474 46.5537 27.4297 46.5537H27.5859V47.1787C28.3151 47.1787 28.6797 46.8141 28.6797 46.085V44.835C28.6797 44.6787 28.5234 44.5225 28.2109 44.3662L27.1172 44.6787ZM38.2109 47.1787C38.3411 48.3245 38.8099 48.8975 39.6172 48.8975V49.21C39.6172 49.3141 39.5651 49.3662 39.4609 49.3662L39.7734 49.9912C40.1901 49.835 40.3984 49.6787 40.3984 49.5225C40.112 48.0641 39.7474 47.335 39.3047 47.335V47.0225H39.4609C39.6693 47.1266 39.8255 47.1787 39.9297 47.1787C40.138 46.9183 40.2422 46.762 40.2422 46.71V46.5537C40.2422 46.3454 40.138 46.2412 39.9297 46.2412H39.3047C38.9922 46.8662 38.6276 47.1787 38.2109 47.1787ZM30.7109 47.335V47.96L32.5859 48.2725C33.0026 48.1162 33.2109 47.96 33.2109 47.8037V47.4912C32.8464 46.8662 32.3255 46.5537 31.6484 46.5537C31.2318 46.6839 30.9193 46.9443 30.7109 47.335ZM36.4922 47.0225V47.4912C36.5182 47.6995 36.6224 47.8037 36.8047 47.8037H37.1172C37.2734 47.8037 37.4297 47.6475 37.5859 47.335V47.0225C37.5859 46.8141 37.4818 46.71 37.2734 46.71H36.8047C36.5964 46.736 36.4922 46.8402 36.4922 47.0225ZM27.1172 48.4287V48.585L27.7422 49.3662C27.7422 49.5745 27.5339 49.6787 27.1172 49.6787V50.3037C27.5339 50.3037 27.7422 50.6162 27.7422 51.2412H28.5234C28.8359 51.2412 28.9922 50.6683 28.9922 49.5225V49.0537C28.9922 48.5068 28.8359 48.1943 28.5234 48.1162H27.4297C27.2214 48.1423 27.1172 48.2464 27.1172 48.4287ZM30.3984 49.6787C30.3984 49.7829 30.6068 50.0954 31.0234 50.6162V50.7725L30.2422 51.71V51.8662L30.7109 52.4912L30.3984 53.2725C30.5026 53.8454 30.5547 54.3141 30.5547 54.6787V55.3037C30.5547 55.512 30.9714 55.6683 31.8047 55.7725V55.9287C31.8047 56.0329 31.4922 56.2933 30.8672 56.71C30.8672 57.361 31.388 58.0381 32.4297 58.7412L32.5859 59.0537C32.2734 59.7308 32.1172 60.1995 32.1172 60.46V60.9287L33.2109 61.2412C33.5495 61.2412 34.1745 60.8245 35.0859 59.9912V59.21C34.0703 59.21 33.4453 58.5329 33.2109 57.1787C33.0547 57.1787 32.8984 57.0225 32.7422 56.71V56.5537C32.7422 55.7985 33.0026 55.3818 33.5234 55.3037L34.1484 55.46C34.6172 55.2516 34.8776 55.0433 34.9297 54.835V54.3662C34.9297 54.1839 34.0964 53.9756 32.4297 53.7412C32.2474 53.1683 31.9349 52.6995 31.4922 52.335V52.0225C32.2214 51.5277 32.5859 51.0589 32.5859 50.6162C32.4297 50.6162 32.2734 50.46 32.1172 50.1475V49.835C32.3255 49.5745 32.4297 49.3662 32.4297 49.21C32.3255 49.0016 32.2734 48.8454 32.2734 48.7412H31.8047C30.8672 48.7412 30.3984 49.0537 30.3984 49.6787ZM11.9609 49.21V49.5225C11.987 49.7308 12.0911 49.835 12.2734 49.835L12.4297 49.5225V49.21H11.9609ZM33.0547 50.1475V50.3037C33.0547 50.512 33.2109 50.6162 33.5234 50.6162C34.1484 50.512 34.4609 50.3558 34.4609 50.1475V49.6787C34.3568 49.6787 34.2005 49.6266 33.9922 49.5225C33.3672 49.7308 33.0547 49.9391 33.0547 50.1475ZM38.3672 49.6787C38.3672 49.887 38.3151 49.9912 38.2109 49.9912L38.3672 50.3037V50.9287L37.4297 51.71V51.8662C37.4557 52.0745 37.5599 52.1787 37.7422 52.1787H38.2109C38.4714 51.8662 38.9922 51.4495 39.7734 50.9287L39.9297 50.6162C39.9036 50.3818 39.5911 50.0693 38.9922 49.6787H38.3672ZM33.3672 51.8662H33.8359C34.3828 51.8662 34.6953 51.71 34.7734 51.3975V50.9287L33.9922 50.7725H33.8359C33.6536 50.7725 33.4974 51.137 33.3672 51.8662ZM2.27344 51.71C2.50781 51.71 3.34115 51.8662 4.77344 52.1787H5.55469C5.78906 52.1787 5.9974 52.1266 6.17969 52.0225C6.28385 52.0225 6.33594 52.0745 6.33594 52.1787C7.5599 52.0745 8.44531 52.0225 8.99219 52.0225H10.7109L11.6484 52.1787C11.8568 52.0745 12.013 52.0225 12.1172 52.0225C13.2109 52.1266 14.0964 52.1787 14.7734 52.1787C14.9818 52.5173 15.0859 52.8298 15.0859 53.1162V54.21C15.0859 55.3558 15.2943 56.71 15.7109 58.2725C15.3984 58.3766 15.2422 58.6891 15.2422 59.21V59.835C15.2422 60.46 15.4505 60.7725 15.8672 60.7725C16.0755 60.6683 16.2318 60.6162 16.3359 60.6162C16.3359 60.7204 16.388 60.7725 16.4922 60.7725L16.3359 61.085L16.4922 62.1787C16.1016 62.2829 15.7891 62.6995 15.5547 63.4287L15.8672 64.0537C15.763 65.2777 15.6068 66.5277 15.3984 67.8037C15.7109 67.9079 15.8672 68.2204 15.8672 68.7412V69.0537C15.8672 69.3923 15.7109 69.7568 15.3984 70.1475V72.6475L15.2422 72.96L14.1484 72.8037H9.92969C8.52344 72.8037 6.4401 70.8766 3.67969 67.0225V66.8662C4.30469 66.736 4.61719 66.5798 4.61719 66.3975C4.61719 66.2673 4.5651 65.7464 4.46094 64.835C4.66927 64.1579 4.77344 63.7412 4.77344 63.585L4.30469 62.6475C4.30469 62.5433 4.35677 62.1266 4.46094 61.3975L3.99219 59.835C4.30469 59.4183 4.46094 59.1058 4.46094 58.8975C4.22656 57.335 4.01823 56.5537 3.83594 56.5537H3.21094V57.1787C3.41927 57.4391 3.52344 57.6475 3.52344 57.8037C3.21094 58.2985 3.05469 58.9756 3.05469 59.835V60.1475C3.05469 60.3558 3.15885 60.8766 3.36719 61.71C3.05469 62.2308 2.89844 62.5954 2.89844 62.8037C2.89844 63.1162 3.15885 64.3141 3.67969 66.3975C3.67969 66.6058 3.57552 66.71 3.36719 66.71C1.59635 64.6266 0.710938 62.8558 0.710938 61.3975V59.3662C0.710938 57.9079 0.658854 55.9287 0.554688 53.4287C0.554688 52.2829 1.1276 51.71 2.27344 51.71ZM27.7422 52.96C27.7422 53.1162 27.9505 53.3245 28.3672 53.585C28.888 53.4548 29.1484 53.2985 29.1484 53.1162V52.8037C29.1484 52.7256 28.9922 52.5693 28.6797 52.335C28.2891 52.4391 27.9766 52.6475 27.7422 52.96ZM32.5859 52.335V52.6475H32.8984V52.335H32.5859ZM2.74219 54.3662C2.95052 54.7829 3.05469 55.0954 3.05469 55.3037H3.52344C3.73177 55.3037 3.83594 55.1995 3.83594 54.9912V54.3662L3.52344 53.2725H3.21094C2.97656 53.2725 2.82031 53.637 2.74219 54.3662ZM4.46094 53.4287V53.8975H4.92969V53.7412C4.92969 53.5329 4.82552 53.4287 4.61719 53.4287H4.46094ZM27.4297 57.0225V57.1787C27.4297 57.4912 27.8984 57.7516 28.8359 57.96L28.3672 56.085C28.9922 55.7464 29.3047 55.3818 29.3047 54.9912C29.2005 54.5745 28.9922 54.3662 28.6797 54.3662C28.1849 54.3662 27.8724 55.1475 27.7422 56.71C27.5339 56.736 27.4297 56.8402 27.4297 57.0225ZM37.5859 55.9287C37.5859 56.2412 38.0547 56.5016 38.9922 56.71L39.3047 56.085C39.2005 55.6683 38.888 55.46 38.3672 55.46C37.8464 55.5381 37.5859 55.6943 37.5859 55.9287ZM27.2734 59.6787C27.2734 59.887 27.4297 59.9912 27.7422 59.9912C28.1589 59.835 28.3672 59.6787 28.3672 59.5225C28.3672 59.3141 28.263 59.21 28.0547 59.21H27.7422C27.5859 59.21 27.4297 59.3662 27.2734 59.6787ZM23.2109 60.46V60.7725H23.5234V60.46H23.2109ZM31.4922 61.5537V62.0225C31.7786 62.5433 31.987 62.8037 32.1172 62.8037H32.7422L33.0547 61.71C32.7161 61.5016 32.4036 61.3975 32.1172 61.3975L31.4922 61.5537ZM21.0234 62.96C21.4141 65.0433 21.6745 66.085 21.8047 66.085C21.8047 66.1891 21.8568 66.2412 21.9609 66.2412H22.1172L23.0547 65.6162C23.263 65.6423 23.3672 65.7464 23.3672 65.9287L23.2109 66.8662L23.5234 67.0225H23.9922C24.2005 67.0225 24.3047 66.9183 24.3047 66.71V66.085L23.3672 64.9912C23.888 64.7048 24.1484 64.4964 24.1484 64.3662H24.3047C24.3047 64.1318 23.7839 63.6631 22.7422 62.96V62.8037C22.7682 62.5954 22.8724 62.4912 23.0547 62.4912C23.4453 62.6995 23.862 62.8037 24.3047 62.8037V62.335C24.1484 61.9183 23.7839 61.71 23.2109 61.71H22.7422C21.5964 61.8141 21.0234 62.2308 21.0234 62.96ZM27.2734 63.1162C27.6901 63.9495 27.9505 64.3662 28.0547 64.3662H28.6797V64.21L28.3672 63.7412C28.888 63.4548 29.1484 63.2464 29.1484 63.1162V62.8037C29.1484 62.6475 28.9922 62.4912 28.6797 62.335C27.7422 62.4652 27.2734 62.7256 27.2734 63.1162ZM31.4922 64.9912L31.1797 64.835C30.5547 64.9391 30.2422 65.0954 30.2422 65.3037V65.46C30.7891 66.3975 31.362 66.8662 31.9609 66.8662C32.8724 66.9704 33.4453 67.0225 33.6797 67.0225C34.0182 66.8141 34.2786 66.71 34.4609 66.71V66.3975C33.3932 64.6266 32.7682 63.7412 32.5859 63.7412H32.2734C32.0651 63.7412 31.8568 64.1579 31.6484 64.9912H31.4922ZM38.0547 63.8975L37.8984 64.21C37.9245 64.4183 38.0286 64.5225 38.2109 64.5225H38.3672V64.21C38.3672 64.0016 38.263 63.8975 38.0547 63.8975ZM28.0547 65.9287C28.0547 66.085 28.2109 66.2412 28.5234 66.3975H28.8359C29.0443 66.3975 29.1484 66.2933 29.1484 66.085V65.9287C29.1484 65.7204 29.0443 65.6162 28.8359 65.6162H28.3672C28.1589 65.6423 28.0547 65.7464 28.0547 65.9287ZM26.6484 66.71V67.335L27.5859 68.1162C27.2734 68.5068 27.1172 68.8714 27.1172 69.21C27.1172 69.4183 27.2734 69.5225 27.5859 69.5225C27.9245 69.3141 28.1849 69.21 28.3672 69.21V68.4287C28.3672 68.1943 28.6276 68.0381 29.1484 67.96V67.4912C29.1484 67.361 28.6797 67.1527 27.7422 66.8662C27.7422 66.5537 27.4818 66.3975 26.9609 66.3975C26.7526 66.4235 26.6484 66.5277 26.6484 66.71ZM30.3984 68.7412V69.0537H30.7109V68.7412H30.3984ZM9.61719 70.1475V70.9287H10.0859C10.0859 70.7204 10.138 70.6162 10.2422 70.6162C10.138 70.4079 10.0859 70.2516 10.0859 70.1475H9.61719ZM17.5859 71.085L17.7422 71.3975L17.4297 71.5537L17.2734 71.2412L17.5859 71.085Z" fill="#0096FF"/>
<rect x="21.2188" width="6.75984" height="11.6867" fill="#0096FF"/>
<rect x="21.2188" y="74.7471" width="6.75984" height="11.6867" fill="#0096FF"/>
</svg>
