<svg width="16" height="16" viewBox="0 0 16 16" fill="none" xmlns="http://www.w3.org/2000/svg">
<path d="M7.95608 0.725959L10.1535 5.18726C10.1713 5.22349 10.1977 5.25481 10.2304 5.2785C10.2631 5.30219 10.301 5.31754 10.3409 5.32322L15.2538 6.03867C15.2996 6.04535 15.3426 6.06473 15.378 6.09463C15.4134 6.12453 15.4397 6.16376 15.454 6.20787C15.4684 6.25199 15.4701 6.29923 15.459 6.34427C15.4479 6.3893 15.4245 6.43034 15.3913 6.46273L11.836 9.9355C11.8071 9.9636 11.7855 9.99832 11.7731 10.0366C11.7606 10.075 11.7577 10.1158 11.7645 10.1555L12.6039 15.0599C12.6117 15.1056 12.6065 15.1526 12.5891 15.1956C12.5716 15.2386 12.5425 15.2758 12.5051 15.3031C12.4676 15.3303 12.4233 15.3466 12.3771 15.35C12.3309 15.3533 12.2847 15.3437 12.2437 15.3222L7.84899 13.007C7.81335 12.9883 7.77371 12.9785 7.73346 12.9785C7.69322 12.9785 7.65357 12.9883 7.61794 13.007L3.2232 15.3222C3.18219 15.3437 3.13599 15.3533 3.08981 15.35C3.04363 15.3466 2.99932 15.3303 2.96186 15.3031C2.92441 15.2758 2.8953 15.2386 2.87784 15.1956C2.86038 15.1526 2.85525 15.1056 2.86303 15.0599L3.70289 10.1555C3.7097 10.1158 3.70676 10.075 3.6943 10.0366C3.68185 9.99832 3.66027 9.9636 3.63141 9.9355L0.075603 6.46273C0.0424666 6.43034 0.0190323 6.3893 0.00794936 6.34427C-0.00313362 6.29923 -0.00142355 6.25199 0.0128859 6.20787C0.0271954 6.16376 0.053534 6.12453 0.0889249 6.09463C0.124316 6.06473 0.167348 6.04535 0.213158 6.03867L5.12671 5.32322C5.16664 5.31754 5.20458 5.30219 5.23725 5.2785C5.26992 5.25481 5.29632 5.22349 5.31418 5.18726L7.51155 0.725959C7.5321 0.684494 7.56379 0.649601 7.60306 0.625208C7.64233 0.600815 7.68761 0.587891 7.73382 0.587891C7.78002 0.587891 7.8253 0.600815 7.86457 0.625208C7.90384 0.649601 7.93553 0.684494 7.95608 0.725959Z" fill="white"/>
</svg>
